<?xml version="1.0" encoding="UTF-8" standalone="no"?>
<!DOCTYPE svg PUBLIC "-//W3C//DTD SVG 1.1//EN" "http://www.w3.org/Graphics/SVG/1.1/DTD/svg11.dtd">
<svg width="100%" height="100%" viewBox="0 0 147 146" version="1.1" xmlns="http://www.w3.org/2000/svg" xmlns:xlink="http://www.w3.org/1999/xlink" xml:space="preserve" style="fill-rule:evenodd;clip-rule:evenodd;stroke-linejoin:round;stroke-miterlimit:1.41421;">
    <g transform="matrix(1,0,0,1,-95.8601,-284.2)">
        <g transform="matrix(4.16667,0,0,4.16667,0,0)">
            <path d="M38.783,75.81C37.516,77.135 37.858,79.387 37.681,81.916C36.917,81.916 36.154,81.916 35.391,81.916C35.391,83.16 35.391,84.404 35.391,85.648C36.182,85.648 36.974,85.648 37.765,85.648C37.765,89.408 37.765,93.168 37.765,96.929C39.236,96.929 40.706,96.929 42.176,96.929C42.176,93.168 42.176,89.408 42.176,85.648C43.222,85.648 44.268,85.648 45.314,85.648C45.492,84.469 45.578,83.199 45.653,81.916C44.495,81.916 43.334,81.916 42.176,81.916C42.375,80.586 41.717,79.008 42.685,78.523C43.424,78.154 44.488,78.619 45.653,78.439C45.653,77.166 45.653,75.894 45.653,74.622C42.708,74.656 40.188,74.342 38.783,75.81ZM39.292,68.262C47.976,67.619 53.749,72.836 56.255,77.846C57.862,81.055 58.546,85.189 57.782,89.125C56.453,95.967 51.334,101.088 44.805,102.696C41.198,103.583 37.009,103.283 33.525,101.763C28.087,99.391 23.07,94.078 23.007,85.818C22.949,78.033 27.32,72.834 32.592,70.127C34.524,69.135 36.562,68.463 39.292,68.262Z" style="fill:white;"/>
        </g>
    </g>
</svg>
