<?xml version="1.0" standalone="no"?>
<!DOCTYPE svg PUBLIC "-//W3C//DTD SVG 1.1//EN" "http://www.w3.org/Graphics/SVG/1.1/DTD/svg11.dtd">
<svg width="100%" height="100%" viewBox="0 0 161 161" version="1.1" xmlns="http://www.w3.org/2000/svg" xmlns:xlink="http://www.w3.org/1999/xlink" xml:space="preserve" style="fill-rule:evenodd;clip-rule:evenodd;stroke-linejoin:round;stroke-miterlimit:1.41421;">
    <g transform="matrix(1,0,0,1,-1574.48,-1157.69)">
        <g transform="matrix(4.16667,0,0,4.16667,0,0)">
            <path d="M414.395,288.431C411.642,282.928 405.301,277.199 395.763,277.905C392.763,278.125 390.527,278.864 388.405,279.953C382.613,282.926 377.812,288.637 377.876,297.188C377.945,306.26 383.457,312.095 389.428,314.702C393.255,316.37 397.857,316.701 401.82,315.726C408.989,313.96 414.612,308.334 416.073,300.82C416.911,296.497 416.161,291.955 414.395,288.431" style="fill:rgb(35,167,81);"/>
        </g>
        <g transform="matrix(4.16667,0,0,4.16667,0,0)">
            <path d="M405.07,292.404L405.07,303.466C405.07,304.524 404.877,306.265 405.295,306.947C405.74,307.674 407.074,307.692 407.541,307.059C407.984,306.459 407.765,304.506 407.765,303.521L407.765,292.236L405.127,292.236C405.062,292.245 405.066,292.325 405.07,292.404M387.327,286.059L387.327,301.949C387.327,303.151 387.018,306.336 387.552,307.059C388.034,307.713 389.82,307.564 391.089,307.564L403.33,307.564C403.181,307.039 403.078,306.556 403.049,305.992C402.726,299.526 403.256,292.444 403.105,285.947C397.978,285.816 392.605,285.928 387.384,285.891C387.319,285.901 387.322,285.98 387.327,286.059M385.754,284.262L404.677,284.262L404.677,290.551C406.138,290.682 407.84,290.571 409.394,290.607L409.394,303.073C409.394,304.394 409.607,306.083 409.283,307.115C408.517,309.54 405.865,309.193 402.599,309.193L392.381,309.193C390.803,309.193 388.616,309.426 387.495,308.967C386.777,308.675 386.079,307.902 385.812,307.059C385.385,305.716 385.699,303.208 385.699,301.444L385.699,284.431C385.695,284.352 385.69,284.272 385.754,284.262" style="fill:white;fill-rule:nonzero;"/>
        </g>
        <g transform="matrix(4.16667,0,0,4.16667,0,0)">
            <path d="M389.292,287.576C391.033,287.613 392.923,287.502 394.571,287.632L394.571,294.818L389.182,294.818L389.182,287.744C389.179,287.648 389.222,287.598 389.292,287.576" style="fill:white;fill-rule:nonzero;"/>
        </g>
        <g transform="matrix(4.16667,0,0,4.16667,0,0)">
            <path d="M401.082,289.765L401.082,290.719L395.861,290.719C395.898,290.419 395.789,289.972 395.918,289.765L401.082,289.765Z" style="fill:white;fill-rule:nonzero;"/>
        </g>
        <g transform="matrix(4.16667,0,0,4.16667,0,0)">
            <path d="M401.082,291.844L401.082,292.798L395.861,292.798C395.898,292.497 395.789,292.051 395.918,291.844L401.082,291.844Z" style="fill:white;fill-rule:nonzero;"/>
        </g>
        <g transform="matrix(4.16667,0,0,4.16667,0,0)">
            <path d="M401.082,293.921L401.082,294.875L395.861,294.875C395.898,294.575 395.789,294.128 395.918,293.921L401.082,293.921Z" style="fill:white;fill-rule:nonzero;"/>
        </g>
        <g transform="matrix(4.16667,0,0,4.16667,0,0)">
            <path d="M389.292,296.054L401.083,296.054L401.083,297.008L389.237,297.008C389.273,296.707 389.163,296.26 389.292,296.054" style="fill:white;fill-rule:nonzero;"/>
        </g>
        <g transform="matrix(4.16667,0,0,4.16667,0,0)">
            <path d="M389.292,298.132L401.083,298.132L401.083,299.086L389.237,299.086C389.273,298.786 389.163,298.339 389.292,298.132" style="fill:white;fill-rule:nonzero;"/>
        </g>
        <g transform="matrix(4.16667,0,0,4.16667,0,0)">
            <path d="M389.292,300.209L401.083,300.209L401.083,301.22L389.237,301.22C389.273,300.901 389.163,300.436 389.292,300.209" style="fill:white;fill-rule:nonzero;"/>
        </g>
        <g transform="matrix(4.16667,0,0,4.16667,0,0)">
            <path d="M389.292,302.342L401.083,302.342L401.083,303.298L389.237,303.298C389.273,302.997 389.163,302.551 389.292,302.342" style="fill:white;fill-rule:nonzero;"/>
        </g>
        <g transform="matrix(4.16667,0,0,4.16667,0,0)">
            <path d="M389.292,304.421L401.083,304.421L401.083,305.432L389.237,305.432C389.273,305.112 389.163,304.647 389.292,304.421" style="fill:white;fill-rule:nonzero;"/>
        </g>
    </g>
</svg>
