<?xml version="1.0" standalone="no"?>
<!DOCTYPE svg PUBLIC "-//W3C//DTD SVG 1.1//EN" "http://www.w3.org/Graphics/SVG/1.1/DTD/svg11.dtd">
<svg width="100%" height="100%" viewBox="0 0 1044 146" version="1.1" xmlns="http://www.w3.org/2000/svg" xmlns:xlink="http://www.w3.org/1999/xlink" xml:space="preserve" style="fill-rule:evenodd;clip-rule:evenodd;stroke-linejoin:round;stroke-miterlimit:1.41421;">
    <g transform="matrix(1,0,0,1,-1260.56,-1292.64)">
        <g transform="matrix(4.16667,0,0,4.16667,0,0)">
            <path d="M356.026,321.371L358.556,321.371L361.809,330.557L365.11,321.371L367.637,321.371L362.979,334.301L360.606,334.301L356.026,321.371Z" style="fill:white;fill-rule:nonzero;"/>
        </g>
        <g transform="matrix(4.16667,0,0,4.16667,0,0)">
            <path d="M373.56,324.799L371.826,329.238L375.285,329.238L373.56,324.799ZM372.297,321.371L374.793,321.371L379.765,334.301L377.208,334.301L376.197,331.637L370.921,331.637L369.869,334.301L367.312,334.301L372.297,321.371Z" style="fill:white;fill-rule:nonzero;"/>
        </g>
        <g transform="matrix(4.16667,0,0,4.16667,0,0)">
            <path d="M392.894,323.643L391.173,325.285C390.002,324.046 388.685,323.427 387.221,323.427C385.986,323.427 384.946,323.85 384.099,324.695C383.253,325.539 382.831,326.58 382.831,327.818C382.831,328.68 383.018,329.445 383.392,330.115C383.767,330.783 384.297,331.308 384.982,331.689C385.666,332.07 386.428,332.261 387.265,332.261C387.979,332.261 388.632,332.127 389.223,331.861C389.815,331.593 390.464,331.109 391.173,330.404L392.841,332.146C391.886,333.078 390.984,333.724 390.134,334.084C389.285,334.445 388.315,334.624 387.225,334.624C385.215,334.624 383.57,333.988 382.29,332.713C381.009,331.439 380.37,329.806 380.37,327.814C380.37,326.525 380.661,325.378 381.244,324.376C381.827,323.374 382.662,322.57 383.749,321.96C384.835,321.351 386.006,321.046 387.26,321.046C388.327,321.046 389.353,321.271 390.341,321.722C391.328,322.171 392.179,322.812 392.894,323.643" style="fill:white;fill-rule:nonzero;"/>
        </g>
        <g transform="matrix(4.16667,0,0,4.16667,0,0)">
            <path d="M402.088,323.129L400.266,324.738C399.625,323.848 398.974,323.402 398.311,323.402C397.987,323.402 397.724,323.488 397.519,323.661C397.313,323.834 397.21,324.029 397.21,324.246C397.21,324.463 397.283,324.668 397.43,324.861C397.63,325.119 398.232,325.672 399.235,326.522C400.174,327.307 400.743,327.803 400.943,328.008C401.442,328.512 401.795,328.993 402.004,329.453C402.212,329.913 402.317,330.416 402.317,330.961C402.317,332.022 401.95,332.897 401.217,333.588C400.484,334.279 399.527,334.625 398.349,334.625C397.428,334.625 396.625,334.4 395.942,333.949C395.259,333.498 394.674,332.789 394.187,331.822L396.255,330.574C396.877,331.717 397.593,332.287 398.403,332.287C398.825,332.287 399.181,332.164 399.468,331.918C399.756,331.672 399.9,331.389 399.9,331.067C399.9,330.774 399.791,330.481 399.573,330.188C399.357,329.895 398.878,329.445 398.139,328.842C396.73,327.693 395.82,326.808 395.409,326.184C394.998,325.56 394.793,324.938 394.793,324.317C394.793,323.42 395.135,322.65 395.818,322.009C396.502,321.367 397.345,321.047 398.348,321.047C398.993,321.047 399.608,321.195 400.192,321.494C400.775,321.793 401.407,322.338 402.088,323.129" style="fill:white;fill-rule:nonzero;"/>
        </g>
        <g transform="matrix(4.16667,0,0,4.16667,0,0)">
            <path d="M403.526,321.371L405.947,321.371L407.815,329.625L410.123,321.371L412.17,321.371L414.512,329.625L416.362,321.371L418.784,321.371L415.871,334.301L413.51,334.301L411.128,325.941L408.79,334.301L406.452,334.301L403.526,321.371Z" style="fill:white;fill-rule:nonzero;"/>
        </g>
        <g transform="matrix(4.16667,0,0,4.16667,0,0)">
            <rect x="420.605" y="321.371" width="2.443" height="12.93" style="fill:white;fill-rule:nonzero;"/>
        </g>
        <g transform="matrix(4.16667,0,0,4.16667,0,0)">
            <path d="M427.306,321.371L429.704,321.371L432.701,330.389L435.725,321.371L438.121,321.371L440.29,334.301L437.91,334.301L436.525,326.135L433.778,334.301L431.609,334.301L428.886,326.135L427.467,334.301L425.068,334.301L427.306,321.371Z" style="fill:white;fill-rule:nonzero;"/>
        </g>
        <g transform="matrix(4.16667,0,0,4.16667,0,0)">
            <path d="M447.321,321.371L453.737,321.371L453.737,323.771L449.764,323.771L449.764,326.117L453.737,326.117L453.737,328.482L449.764,328.482L449.764,334.301L447.321,334.301L447.321,321.371Z" style="fill:white;fill-rule:nonzero;"/>
        </g>
        <g transform="matrix(4.16667,0,0,4.16667,0,0)">
            <path d="M460.197,326.707C459.456,326.707 458.84,326.969 458.348,327.493C457.858,328.018 457.613,328.689 457.613,329.51C457.613,330.336 457.863,331.016 458.362,331.549C458.861,332.082 459.475,332.35 460.206,332.35C460.959,332.35 461.584,332.087 462.081,331.562C462.577,331.038 462.825,330.352 462.825,329.502C462.825,328.67 462.577,327.996 462.081,327.48C461.584,326.965 460.957,326.707 460.197,326.707M462.719,324.738L465.119,324.738L465.119,334.301L462.719,334.301L462.719,333.289C462.251,333.734 461.782,334.056 461.31,334.252C460.84,334.448 460.329,334.547 459.779,334.547C458.544,334.547 457.475,334.067 456.574,333.109C455.673,332.151 455.222,330.961 455.222,329.537C455.222,328.061 455.658,326.85 456.53,325.906C457.402,324.963 458.462,324.492 459.709,324.492C460.282,324.492 460.82,324.6 461.324,324.816C461.827,325.033 462.292,325.359 462.719,325.793L462.719,324.738Z" style="fill:white;fill-rule:nonzero;"/>
        </g>
        <g transform="matrix(4.16667,0,0,4.16667,0,0)">
            <path d="M476.905,326.672L474.908,327.77C474.532,327.377 474.161,327.106 473.795,326.953C473.427,326.801 472.998,326.725 472.506,326.725C471.608,326.725 470.882,326.992 470.327,327.527C469.773,328.063 469.496,328.748 469.496,329.585C469.496,330.399 469.762,331.063 470.297,331.577C470.831,332.092 471.531,332.35 472.4,332.35C473.473,332.35 474.309,331.983 474.908,331.25L476.8,332.546C475.774,333.88 474.327,334.547 472.458,334.547C470.776,334.547 469.459,334.049 468.507,333.053C467.554,332.057 467.079,330.891 467.079,329.555C467.079,328.629 467.31,327.776 467.773,326.996C468.236,326.217 468.882,325.606 469.712,325.16C470.54,324.715 471.467,324.492 472.493,324.492C473.442,324.492 474.295,324.681 475.051,325.059C475.806,325.437 476.425,325.975 476.905,326.672" style="fill:white;fill-rule:nonzero;"/>
        </g>
        <g transform="matrix(4.16667,0,0,4.16667,0,0)">
            <path d="M485.768,328.324C485.61,327.791 485.297,327.357 484.83,327.023C484.364,326.689 483.823,326.521 483.206,326.521C482.537,326.521 481.95,326.709 481.446,327.084C481.128,327.318 480.834,327.732 480.565,328.324L485.768,328.324ZM488.167,330.213L480.459,330.213C480.571,330.892 480.869,331.433 481.351,331.835C481.835,332.236 482.452,332.437 483.202,332.437C484.098,332.437 484.869,332.123 485.513,331.496L487.535,332.445C487.031,333.16 486.427,333.689 485.724,334.032C485.021,334.375 484.186,334.547 483.219,334.547C481.719,334.547 480.497,334.073 479.554,333.127C478.611,332.18 478.139,330.996 478.139,329.572C478.139,328.113 478.609,326.901 479.55,325.937C480.49,324.973 481.669,324.492 483.087,324.492C484.593,324.492 485.818,324.973 486.761,325.937C487.705,326.901 488.176,328.174 488.176,329.756L488.167,330.213Z" style="fill:white;fill-rule:nonzero;"/>
        </g>
        <g transform="matrix(4.16667,0,0,4.16667,0,0)">
            <path d="M494.999,326.707C494.243,326.707 493.616,326.965 493.118,327.48C492.62,327.996 492.371,328.67 492.371,329.502C492.371,330.352 492.62,331.038 493.118,331.562C493.616,332.087 494.243,332.35 494.999,332.35C495.731,332.35 496.349,332.082 496.849,331.549C497.351,331.016 497.601,330.336 497.601,329.51C497.601,328.689 497.354,328.018 496.862,327.493C496.37,326.969 495.749,326.707 494.999,326.707M492.477,321.047L492.477,325.793C492.91,325.359 493.379,325.033 493.883,324.816C494.387,324.6 494.926,324.492 495.5,324.492C496.748,324.492 497.809,324.963 498.682,325.906C499.555,326.85 499.991,328.061 499.991,329.537C499.991,330.961 499.54,332.151 498.638,333.109C497.735,334.067 496.666,334.547 495.43,334.547C494.879,334.547 494.366,334.448 493.892,334.252C493.417,334.056 492.945,333.734 492.477,333.289L492.477,334.301L490.095,334.301L490.095,321.047L492.477,321.047Z" style="fill:white;fill-rule:nonzero;"/>
        </g>
        <g transform="matrix(4.16667,0,0,4.16667,0,0)">
            <path d="M506.509,326.75C505.763,326.75 505.143,327.01 504.647,327.528C504.151,328.047 503.903,328.711 503.903,329.52C503.903,330.352 504.148,331.025 504.638,331.541C505.128,332.057 505.748,332.314 506.499,332.314C507.251,332.314 507.876,332.053 508.375,331.531C508.873,331.01 509.123,330.34 509.123,329.52C509.123,328.699 508.878,328.032 508.388,327.52C507.898,327.007 507.272,326.75 506.509,326.75M506.469,324.492C507.371,324.492 508.219,324.717 509.013,325.168C509.807,325.619 510.427,326.232 510.872,327.006C511.318,327.779 511.54,328.613 511.54,329.51C511.54,330.412 511.316,331.256 510.868,332.041C510.419,332.826 509.809,333.44 509.035,333.883C508.262,334.325 507.409,334.547 506.478,334.547C505.107,334.547 503.936,334.059 502.966,333.083C501.996,332.107 501.512,330.922 501.512,329.527C501.512,328.033 502.06,326.789 503.155,325.793C504.116,324.926 505.221,324.492 506.469,324.492" style="fill:white;fill-rule:nonzero;"/>
        </g>
        <g transform="matrix(4.16667,0,0,4.16667,0,0)">
            <path d="M517.995,326.75C517.249,326.75 516.629,327.01 516.133,327.528C515.637,328.047 515.389,328.711 515.389,329.52C515.389,330.352 515.634,331.025 516.124,331.541C516.614,332.057 517.234,332.314 517.985,332.314C518.737,332.314 519.362,332.053 519.861,331.531C520.359,331.01 520.609,330.34 520.609,329.52C520.609,328.699 520.364,328.032 519.874,327.52C519.384,327.007 518.758,326.75 517.995,326.75M517.955,324.492C518.857,324.492 519.705,324.717 520.499,325.168C521.293,325.619 521.913,326.232 522.358,327.006C522.804,327.779 523.026,328.613 523.026,329.51C523.026,330.412 522.802,331.256 522.354,332.041C521.905,332.826 521.295,333.44 520.521,333.883C519.748,334.325 518.895,334.547 517.964,334.547C516.593,334.547 515.422,334.059 514.452,333.083C513.482,332.107 512.998,330.922 512.998,329.527C512.998,328.033 513.546,326.789 514.641,325.793C515.602,324.926 516.707,324.492 517.955,324.492" style="fill:white;fill-rule:nonzero;"/>
        </g>
        <g transform="matrix(4.16667,0,0,4.16667,0,0)">
            <path d="M524.997,321.047L527.396,321.047L527.396,328.68L530.93,324.738L533.943,324.738L529.823,329.32L534.435,334.301L531.457,334.301L527.396,329.893L527.396,334.301L524.997,334.301L524.997,321.047Z" style="fill:white;fill-rule:nonzero;"/>
        </g>
        <g transform="matrix(4.16667,0,0,4.16667,0,0)">
            <path d="M544.06,324.538L544.06,320.96L552.919,328.248L552.919,331.434L544.06,338.736L544.06,335.146L550.383,329.843L544.06,324.538Z" style="fill:white;fill-rule:nonzero;"/>
        </g>
        <g transform="matrix(4.16667,0,0,4.16667,0,0)">
            <path d="M318.31,317.836C317.043,319.16 317.385,321.412 317.208,323.941L314.918,323.941L314.918,327.674L317.292,327.674L317.292,338.954L321.704,338.954L321.704,327.674L324.841,327.674C325.019,326.494 325.105,325.225 325.18,323.941L321.704,323.941C321.902,322.611 321.245,321.033 322.212,320.549C322.952,320.18 324.015,320.645 325.18,320.465L325.18,316.648C322.235,316.682 319.715,316.367 318.31,317.836M318.82,310.287C327.503,309.645 333.276,314.861 335.783,319.871C337.389,323.08 338.074,327.215 337.309,331.15C335.98,337.992 330.861,343.114 324.332,344.722C320.725,345.609 316.537,345.309 313.052,343.789C307.615,341.416 302.597,336.104 302.535,327.844C302.476,320.059 306.847,314.859 312.12,312.152C314.051,311.16 316.089,310.488 318.82,310.287" style="fill:white;"/>
        </g>
    </g>
</svg>
