<?xml version="1.0" standalone="no"?>
<!DOCTYPE svg PUBLIC "-//W3C//DTD SVG 1.1//EN" "http://www.w3.org/Graphics/SVG/1.1/DTD/svg11.dtd">
<svg width="100%" height="100%" viewBox="0 0 47 103" version="1.1" xmlns="http://www.w3.org/2000/svg" xmlns:xlink="http://www.w3.org/1999/xlink" xml:space="preserve" style="fill-rule:evenodd;clip-rule:evenodd;stroke-linejoin:round;stroke-miterlimit:1.41421;">
    <g transform="matrix(1,0,0,1,-1829.16,-1187.01)">
        <g transform="matrix(4.16667,0,0,4.16667,0,0)">
            <path d="M450.27,284.89L450.27,289.083C448.989,289.281 447.822,288.77 447.008,289.175C445.948,289.707 446.668,291.441 446.452,292.902L450.27,292.902C450.186,294.311 450.092,295.705 449.897,297.001L446.452,297.001L446.452,309.391L441.605,309.391L441.605,297.001L438.999,297.001L438.999,292.902L441.513,292.902C441.708,290.123 441.332,287.65 442.722,286.196C444.268,284.582 447.035,284.928 450.27,284.89" style="fill:white;"/>
        </g>
    </g>
</svg>
