<?xml version="1.0" standalone="no"?>
<!DOCTYPE svg PUBLIC "-//W3C//DTD SVG 1.1//EN" "http://www.w3.org/Graphics/SVG/1.1/DTD/svg11.dtd">
<svg width="100%" height="100%" viewBox="0 0 161 161" version="1.1" xmlns="http://www.w3.org/2000/svg" xmlns:xlink="http://www.w3.org/1999/xlink" xml:space="preserve" style="fill-rule:evenodd;clip-rule:evenodd;stroke-linejoin:round;stroke-miterlimit:1.41421;">
    <g transform="matrix(1,0,0,1,-1772.48,-1157.69)">
        <g transform="matrix(4.16667,0,0,4.16667,0,0)">
            <path d="M442.723,286.196C441.332,287.65 441.708,290.124 441.513,292.902L438.998,292.902L438.998,297.002L441.605,297.002L441.605,309.391L446.452,309.391L446.452,297.002L449.897,297.002C450.092,295.706 450.186,294.311 450.27,292.902L446.452,292.902C446.668,291.441 445.948,289.708 447.009,289.175C447.822,288.77 448.989,289.281 450.27,289.084L450.27,284.89C447.035,284.928 444.268,284.583 442.723,286.196M443.283,277.905C452.821,277.199 459.161,282.928 461.914,288.431C463.68,291.956 464.43,296.498 463.592,300.82C462.131,308.335 456.508,313.961 449.339,315.726C445.376,316.701 440.775,316.371 436.948,314.702C430.976,312.095 425.464,306.26 425.396,297.188C425.331,288.637 430.132,282.926 435.924,279.954C438.046,278.864 440.284,278.126 443.283,277.905" style="fill:rgb(35,167,81);"/>
        </g>
        <g transform="matrix(4.16667,0,0,4.16667,0,0)">
            <path d="M450.27,284.89L450.27,289.083C448.989,289.281 447.822,288.77 447.008,289.175C445.948,289.707 446.668,291.441 446.452,292.902L450.27,292.902C450.186,294.311 450.092,295.705 449.897,297.001L446.452,297.001L446.452,309.391L441.605,309.391L441.605,297.001L438.999,297.001L438.999,292.902L441.513,292.902C441.708,290.123 441.332,287.65 442.722,286.196C444.268,284.582 447.035,284.928 450.27,284.89" style="fill:white;"/>
        </g>
    </g>
</svg>
