<?xml version="1.0" encoding="UTF-8" standalone="no"?>
<!DOCTYPE svg PUBLIC "-//W3C//DTD SVG 1.1//EN" "http://www.w3.org/Graphics/SVG/1.1/DTD/svg11.dtd">
<svg width="100%" height="100%" viewBox="0 0 248 158" version="1.1" xmlns="http://www.w3.org/2000/svg" xmlns:xlink="http://www.w3.org/1999/xlink" xml:space="preserve" style="fill-rule:evenodd;clip-rule:evenodd;stroke-linejoin:round;stroke-miterlimit:1.41421;">
    <g transform="matrix(1,0,0,1,-84.8602,-36.4397)">
        <g transform="matrix(4.16667,0,0,4.16667,0,0)">
            <g transform="matrix(1,0,0,1,10.8455,4.03252)">
                <path d="M62.919,17.412C62.919,22.113 62.919,27.53 62.919,32.584C62.919,34.035 62.654,36.423 63.227,37.359C63.838,38.355 65.667,38.382 66.308,37.513C66.916,36.69 66.617,34.01 66.617,32.661C66.617,27.263 66.617,22.28 66.617,17.181C65.41,17.181 64.203,17.181 62.997,17.181C62.907,17.194 62.913,17.303 62.919,17.412ZM38.583,8.709C38.583,15.856 38.583,23.257 38.583,30.504C38.583,32.151 38.158,36.521 38.891,37.513C39.552,38.41 42.001,38.206 43.743,38.206C49.431,38.206 55.087,38.206 60.533,38.206C60.328,37.484 60.186,36.824 60.147,36.049C59.705,27.179 60.431,17.467 60.224,8.555C53.19,8.375 45.822,8.529 38.66,8.478C38.57,8.491 38.576,8.6 38.583,8.709ZM36.425,6.245C45.078,6.245 53.729,6.245 62.38,6.245C62.38,9.12 62.38,11.995 62.38,14.871C64.383,15.05 66.718,14.896 68.849,14.947C68.849,20.233 68.849,26.36 68.849,32.045C68.849,33.858 69.142,36.175 68.696,37.59C67.648,40.915 64.01,40.439 59.531,40.439C54.422,40.439 50.707,40.439 45.514,40.439C43.35,40.439 40.351,40.761 38.813,40.131C37.827,39.728 36.871,38.67 36.503,37.513C35.917,35.669 36.349,32.231 36.349,29.811C36.349,22.353 36.349,13.579 36.349,6.476C36.342,6.367 36.336,6.258 36.425,6.245Z" style="fill:white;fill-rule:nonzero;"/>
            </g>
        </g>
        <g transform="matrix(4.16667,0,0,4.16667,0,0)">
            <g transform="matrix(1,0,0,1,10.8455,4.03252)">
                <path d="M41.278,10.789C43.666,10.839 46.258,10.687 48.518,10.866C48.518,14.152 48.518,17.437 48.518,20.723C46.052,20.723 43.588,20.723 41.125,20.723C41.125,17.489 41.125,14.254 41.125,11.02C41.121,10.888 41.181,10.82 41.278,10.789Z" style="fill:white;fill-rule:nonzero;"/>
            </g>
        </g>
        <g transform="matrix(4.16667,0,0,4.16667,0,0)">
            <g transform="matrix(1,0,0,1,10.8455,4.03252)">
                <path d="M57.451,13.792C57.451,14.228 57.451,14.665 57.451,15.101C55.064,15.101 52.676,15.101 50.289,15.101C50.338,14.689 50.188,14.076 50.366,13.792C52.728,13.792 55.089,13.792 57.451,13.792Z" style="fill:white;fill-rule:nonzero;"/>
            </g>
        </g>
        <g transform="matrix(4.16667,0,0,4.16667,0,0)">
            <g transform="matrix(1,0,0,1,10.8455,4.03252)">
                <path d="M57.451,16.642C57.451,17.078 57.451,17.515 57.451,17.951C55.064,17.951 52.676,17.951 50.289,17.951C50.338,17.539 50.188,16.926 50.366,16.642C52.728,16.642 55.089,16.642 57.451,16.642Z" style="fill:white;fill-rule:nonzero;"/>
            </g>
        </g>
        <g transform="matrix(4.16667,0,0,4.16667,0,0)">
            <g transform="matrix(1,0,0,1,10.8455,4.03252)">
                <path d="M57.451,19.491C57.451,19.928 57.451,20.364 57.451,20.8C55.064,20.8 52.676,20.8 50.289,20.8C50.338,20.389 50.188,19.775 50.366,19.491C52.728,19.491 55.089,19.491 57.451,19.491Z" style="fill:white;fill-rule:nonzero;"/>
            </g>
        </g>
        <g transform="matrix(4.16667,0,0,4.16667,0,0)">
            <g transform="matrix(1,0,0,1,10.8455,4.03252)">
                <path d="M41.278,22.418C46.668,22.418 52.06,22.418 57.451,22.418C57.451,22.854 57.451,23.29 57.451,23.727C52.035,23.727 46.618,23.727 41.201,23.727C41.251,23.315 41.1,22.702 41.278,22.418Z" style="fill:white;fill-rule:nonzero;"/>
            </g>
        </g>
        <g transform="matrix(4.16667,0,0,4.16667,0,0)">
            <g transform="matrix(1,0,0,1,10.8455,4.03252)">
                <path d="M41.278,25.268C46.668,25.268 52.06,25.268 57.451,25.268C57.451,25.704 57.451,26.141 57.451,26.577C52.035,26.577 46.618,26.577 41.201,26.577C41.251,26.165 41.1,25.552 41.278,25.268Z" style="fill:white;fill-rule:nonzero;"/>
            </g>
        </g>
        <g transform="matrix(4.16667,0,0,4.16667,0,0)">
            <g transform="matrix(1,0,0,1,10.8455,4.03252)">
                <path d="M41.278,28.117C46.668,28.117 52.06,28.117 57.451,28.117C57.451,28.579 57.451,29.041 57.451,29.503C52.035,29.503 46.618,29.503 41.201,29.503C41.251,29.066 41.1,28.427 41.278,28.117Z" style="fill:white;fill-rule:nonzero;"/>
            </g>
        </g>
        <g transform="matrix(4.16667,0,0,4.16667,0,0)">
            <g transform="matrix(1,0,0,1,10.8455,4.03252)">
                <path d="M41.278,31.043C46.668,31.043 52.06,31.043 57.451,31.043C57.451,31.48 57.451,31.916 57.451,32.353C52.035,32.353 46.618,32.353 41.201,32.353C41.251,31.941 41.1,31.328 41.278,31.043Z" style="fill:white;fill-rule:nonzero;"/>
            </g>
        </g>
        <g transform="matrix(4.16667,0,0,4.16667,0,0)">
            <g transform="matrix(1,0,0,1,10.8455,4.03252)">
                <path d="M41.278,33.893C46.668,33.893 52.06,33.893 57.451,33.893C57.451,34.355 57.451,34.817 57.451,35.28C52.035,35.28 46.618,35.28 41.201,35.28C41.251,34.842 41.1,34.203 41.278,33.893Z" style="fill:white;fill-rule:nonzero;"/>
            </g>
        </g>
        <g transform="matrix(4.16667,0,0,4.16667,0,0)">
            <g transform="matrix(1,0,0,1,10.8455,4.03252)">
                <path d="M14.173,4.713L9.521,7.133L24.621,35.904C26.175,35.103 27.73,34.301 29.285,33.5L14.173,4.713Z" style="fill:white;fill-rule:nonzero;"/>
            </g>
        </g>
        <g transform="matrix(4.16667,0,0,4.16667,0,0)">
            <g transform="matrix(1,0,0,1,10.8455,4.03252)">
                <path d="M30.932,40.838C30.584,41.018 30.236,41.197 29.888,41.376L31.191,42.622L31.162,42.569L31.194,42.624L30.932,40.838Z" style="fill:white;fill-rule:nonzero;"/>
            </g>
        </g>
        <g transform="matrix(4.16667,0,0,4.16667,0,0)">
            <g transform="matrix(1,0,0,1,10.8455,4.03252)">
                <path d="M29.921,34.731C28.421,35.504 26.92,36.278 25.419,37.051L28.936,40.307C29.466,40.034 29.996,39.761 30.526,39.488L29.921,34.731Z" style="fill:white;fill-rule:nonzero;"/>
            </g>
        </g>
    </g>
</svg>
