<?xml version="1.0" standalone="no"?>
<!DOCTYPE svg PUBLIC "-//W3C//DTD SVG 1.1//EN" "http://www.w3.org/Graphics/SVG/1.1/DTD/svg11.dtd">
<svg width="100%" height="100%" viewBox="0 0 1100 158" version="1.1" xmlns="http://www.w3.org/2000/svg" xmlns:xlink="http://www.w3.org/1999/xlink" xml:space="preserve" style="fill-rule:evenodd;clip-rule:evenodd;stroke-linejoin:round;stroke-miterlimit:1.41421;">
    <g transform="matrix(1,0,0,1,-1204.37,-1028.08)">
        <g transform="matrix(4.16667,0,0,4.16667,0,0)">
            <path d="M342.446,259.437L342.446,274.609C342.446,276.06 342.18,278.449 342.754,279.384C343.365,280.38 345.193,280.407 345.835,279.539C346.442,278.715 346.143,276.036 346.143,274.687L346.143,259.206L342.523,259.206C342.433,259.219 342.439,259.328 342.446,259.437M318.109,250.735L318.109,272.53C318.109,274.177 317.684,278.547 318.418,279.539C319.079,280.436 321.528,280.231 323.269,280.231L340.059,280.231C339.854,279.51 339.713,278.85 339.674,278.075C339.231,269.205 339.958,259.493 339.751,250.581C332.717,250.401 325.348,250.555 318.186,250.503C318.096,250.517 318.102,250.625 318.109,250.735M315.952,248.27L341.907,248.27L341.907,256.896C343.91,257.075 346.245,256.922 348.376,256.973L348.376,274.07C348.376,275.884 348.669,278.2 348.222,279.616C347.175,282.94 343.537,282.465 339.057,282.465L325.041,282.465C322.877,282.465 319.878,282.786 318.34,282.157C317.353,281.753 316.397,280.696 316.03,279.539C315.444,277.695 315.876,274.256 315.876,271.837L315.876,248.501C315.869,248.392 315.863,248.283 315.952,248.27" style="fill:white;fill-rule:nonzero;"/>
        </g>
        <g transform="matrix(4.16667,0,0,4.16667,0,0)">
            <path d="M320.805,252.814C323.193,252.865 325.785,252.712 328.045,252.891L328.045,262.749L320.652,262.749L320.652,253.045C320.648,252.913 320.708,252.846 320.805,252.814" style="fill:white;fill-rule:nonzero;"/>
        </g>
        <g transform="matrix(4.16667,0,0,4.16667,0,0)">
            <path d="M336.977,255.817L336.977,257.126L329.816,257.126C329.865,256.714 329.715,256.101 329.893,255.817L336.977,255.817Z" style="fill:white;fill-rule:nonzero;"/>
        </g>
        <g transform="matrix(4.16667,0,0,4.16667,0,0)">
            <path d="M336.977,258.667L336.977,259.976L329.816,259.976C329.865,259.564 329.715,258.951 329.893,258.667L336.977,258.667Z" style="fill:white;fill-rule:nonzero;"/>
        </g>
        <g transform="matrix(4.16667,0,0,4.16667,0,0)">
            <path d="M336.977,261.516L336.977,262.825L329.816,262.825C329.865,262.413 329.715,261.8 329.893,261.516L336.977,261.516Z" style="fill:white;fill-rule:nonzero;"/>
        </g>
        <g transform="matrix(4.16667,0,0,4.16667,0,0)">
            <path d="M320.805,264.443L336.978,264.443L336.978,265.752L320.728,265.752C320.779,265.34 320.627,264.727 320.805,264.443" style="fill:white;fill-rule:nonzero;"/>
        </g>
        <g transform="matrix(4.16667,0,0,4.16667,0,0)">
            <path d="M320.805,267.293L336.978,267.293L336.978,268.602L320.728,268.602C320.779,268.19 320.627,267.577 320.805,267.293" style="fill:white;fill-rule:nonzero;"/>
        </g>
        <g transform="matrix(4.16667,0,0,4.16667,0,0)">
            <path d="M320.805,270.142L336.978,270.142L336.978,271.528L320.728,271.528C320.779,271.091 320.627,270.452 320.805,270.142" style="fill:white;fill-rule:nonzero;"/>
        </g>
        <g transform="matrix(4.16667,0,0,4.16667,0,0)">
            <path d="M320.805,273.069L336.978,273.069L336.978,274.379L320.728,274.379C320.779,273.966 320.627,273.353 320.805,273.069" style="fill:white;fill-rule:nonzero;"/>
        </g>
        <g transform="matrix(4.16667,0,0,4.16667,0,0)">
            <path d="M320.805,275.919L336.978,275.919L336.978,277.305L320.728,277.305C320.779,276.867 320.627,276.228 320.805,275.919" style="fill:white;fill-rule:nonzero;"/>
        </g>
        <g transform="matrix(4.16667,0,0,4.16667,0,0)">
            <path d="M367.007,264.516L364.608,264.516C364.672,263.121 365.11,262.024 365.922,261.224C366.733,260.425 367.775,260.025 369.046,260.025C369.831,260.025 370.524,260.19 371.125,260.521C371.725,260.852 372.205,261.33 372.567,261.954C372.926,262.578 373.107,263.212 373.107,263.857C373.107,264.624 372.888,265.451 372.451,266.335C372.015,267.22 371.216,268.266 370.055,269.473L368.605,271.002L373.212,271.002L373.212,273.279L364.256,273.279L364.256,272.101L368.255,268.023C369.222,267.044 369.864,266.258 370.184,265.663C370.503,265.068 370.663,264.531 370.663,264.05C370.663,263.552 370.497,263.141 370.166,262.815C369.835,262.49 369.409,262.328 368.888,262.328C368.361,262.328 367.921,262.524 367.57,262.916C367.218,263.309 367.03,263.842 367.007,264.516" style="fill:white;fill-rule:nonzero;"/>
        </g>
        <g transform="matrix(4.16667,0,0,4.16667,0,0)">
            <path d="M379.402,262.363C378.987,262.363 378.619,262.496 378.298,262.763C377.975,263.03 377.73,263.488 377.56,264.138C377.391,264.789 377.306,265.741 377.306,266.995C377.306,268.63 377.501,269.759 377.889,270.383C378.278,271.007 378.783,271.319 379.402,271.319C379.999,271.319 380.472,271.023 380.823,270.431C381.25,269.717 381.464,268.521 381.464,266.845C381.464,265.146 381.272,263.974 380.889,263.33C380.506,262.685 380.01,262.363 379.402,262.363M379.345,260.025C380.289,260.025 381.101,260.257 381.785,260.719C382.466,261.182 382.994,261.89 383.367,262.842C383.738,263.794 383.924,265.12 383.924,266.819C383.924,268.536 383.736,269.872 383.357,270.827C382.98,271.782 382.471,272.484 381.833,272.932C381.194,273.38 380.388,273.604 379.416,273.604C378.443,273.604 377.626,273.379 376.964,272.927C376.301,272.476 375.783,271.791 375.408,270.871C375.033,269.951 374.845,268.641 374.845,266.942C374.845,264.569 375.212,262.849 375.944,261.783C376.758,260.611 377.892,260.025 379.345,260.025" style="fill:white;fill-rule:nonzero;"/>
        </g>
        <g transform="matrix(4.16667,0,0,4.16667,0,0)">
            <path d="M386.923,260.35L390.606,260.35L390.606,273.279L388.162,273.279L388.162,262.662L385.499,262.662L386.923,260.35Z" style="fill:white;fill-rule:nonzero;"/>
        </g>
        <g transform="matrix(4.16667,0,0,4.16667,0,0)">
            <path d="M396.068,260.35L402.124,260.35L402.124,262.626L397.905,262.626L397.378,264.973C397.524,264.932 397.668,264.901 397.808,264.881C397.949,264.86 398.084,264.85 398.213,264.85C399.384,264.85 400.358,265.25 401.134,266.05C401.911,266.85 402.299,267.873 402.299,269.121C402.299,270.381 401.87,271.443 401.011,272.308C400.153,273.172 399.109,273.604 397.879,273.604C396.777,273.604 395.831,273.29 395.04,272.663C394.249,272.037 393.73,271.178 393.484,270.088L396.068,270.088C396.267,270.493 396.529,270.799 396.855,271.007C397.179,271.215 397.539,271.319 397.931,271.319C398.476,271.319 398.939,271.122 399.32,270.73C399.701,270.337 399.891,269.833 399.891,269.218C399.891,268.621 399.714,268.13 399.359,267.746C399.005,267.362 398.576,267.17 398.072,267.17C397.802,267.17 397.537,267.238 397.277,267.372C397.015,267.507 396.759,267.709 396.507,267.979L394.504,267.531L396.068,260.35Z" style="fill:white;fill-rule:nonzero;"/>
        </g>
        <g transform="matrix(4.16667,0,0,4.16667,0,0)">
            <path d="M402.748,275.581L408.551,259.98L410.268,259.98L404.455,275.581L402.748,275.581Z" style="fill:white;fill-rule:nonzero;"/>
        </g>
        <g transform="matrix(4.16667,0,0,4.16667,0,0)">
            <path d="M413.02,260.35L416.703,260.35L416.703,273.279L414.259,273.279L414.259,262.662L411.597,262.662L413.02,260.35Z" style="fill:white;fill-rule:nonzero;"/>
        </g>
        <g transform="matrix(4.16667,0,0,4.16667,0,0)">
            <path d="M423.93,267.794C423.473,267.794 423.089,267.96 422.779,268.291C422.468,268.622 422.313,269.036 422.313,269.534C422.313,270.032 422.475,270.451 422.801,270.791C423.125,271.131 423.505,271.301 423.939,271.301C424.396,271.301 424.788,271.134 425.117,270.8C425.445,270.466 425.609,270.044 425.609,269.534C425.609,269.036 425.449,268.622 425.129,268.291C424.81,267.96 424.41,267.794 423.93,267.794M424.238,260.024L426.334,261.073L424.071,265.465C425.166,265.465 426.098,265.857 426.866,266.643C427.633,267.428 428.017,268.403 428.017,269.569C428.017,270.694 427.622,271.648 426.834,272.43C426.046,273.212 425.096,273.604 423.983,273.604C422.817,273.604 421.845,273.198 421.069,272.386C420.292,271.575 419.905,270.645 419.905,269.596C419.905,269.197 419.964,268.796 420.084,268.392C420.204,267.987 420.482,267.366 420.915,266.528L424.238,260.024Z" style="fill:white;fill-rule:nonzero;"/>
        </g>
        <g transform="matrix(4.16667,0,0,4.16667,0,0)">
            <path d="M435.619,260.35L437.979,260.35L443.512,268.858L443.512,260.35L445.973,260.35L445.973,273.279L443.605,273.279L438.08,264.797L438.08,273.279L435.619,273.279L435.619,260.35Z" style="fill:white;fill-rule:nonzero;"/>
        </g>
        <g transform="matrix(4.16667,0,0,4.16667,0,0)">
            <path d="M455.881,267.302C455.723,266.769 455.41,266.335 454.943,266.001C454.477,265.667 453.936,265.5 453.318,265.5C452.65,265.5 452.063,265.688 451.559,266.063C451.241,266.297 450.947,266.71 450.678,267.302L455.881,267.302ZM458.28,269.192L450.572,269.192C450.684,269.871 450.981,270.412 451.465,270.813C451.947,271.215 452.565,271.415 453.315,271.415C454.211,271.415 454.982,271.102 455.626,270.475L457.648,271.424C457.144,272.139 456.54,272.668 455.837,273.01C455.134,273.353 454.299,273.525 453.332,273.525C451.832,273.525 450.61,273.052 449.667,272.105C448.724,271.159 448.252,269.974 448.252,268.55C448.252,267.091 448.723,265.88 449.662,264.916C450.604,263.952 451.782,263.47 453.2,263.47C454.706,263.47 455.931,263.952 456.874,264.916C457.818,265.88 458.289,267.153 458.289,268.735L458.28,269.192Z" style="fill:white;fill-rule:nonzero;"/>
        </g>
        <g transform="matrix(4.16667,0,0,4.16667,0,0)">
            <path d="M458.836,263.716L461.184,263.716L463.107,269.156L465.176,263.716L466.612,263.716L468.645,269.095L470.569,263.716L472.934,263.716L469.443,273.279L467.924,273.279L465.885,267.829L463.783,273.279L462.281,273.279L458.836,263.716Z" style="fill:white;fill-rule:nonzero;"/>
        </g>
        <g transform="matrix(4.16667,0,0,4.16667,0,0)">
            <path d="M480.074,265.052L478.589,266.537C477.985,265.94 477.437,265.641 476.945,265.641C476.676,265.641 476.465,265.698 476.312,265.812C476.16,265.927 476.084,266.069 476.084,266.239C476.084,266.367 476.133,266.486 476.228,266.594C476.326,266.703 476.564,266.851 476.945,267.038L477.824,267.478C478.75,267.935 479.386,268.401 479.731,268.875C480.077,269.35 480.25,269.906 480.25,270.545C480.25,271.395 479.937,272.104 479.314,272.672C478.689,273.24 477.853,273.525 476.804,273.525C475.41,273.525 474.297,272.98 473.465,271.89L474.941,270.281C475.222,270.61 475.553,270.875 475.929,271.077C476.308,271.279 476.643,271.38 476.936,271.38C477.253,271.38 477.508,271.304 477.701,271.152C477.894,270.999 477.991,270.823 477.991,270.624C477.991,270.255 477.642,269.895 476.945,269.543L476.136,269.139C474.59,268.36 473.816,267.384 473.816,266.212C473.816,265.456 474.107,264.81 474.691,264.274C475.273,263.738 476.019,263.47 476.928,263.47C477.549,263.47 478.133,263.606 478.681,263.879C479.228,264.151 479.693,264.542 480.074,265.052" style="fill:white;fill-rule:nonzero;"/>
        </g>
        <g transform="matrix(4.16667,0,0,4.16667,0,0)">
            <rect x="482.105" y="260.025" width="2.399" height="13.254" style="fill:white;fill-rule:nonzero;"/>
        </g>
        <g transform="matrix(4.16667,0,0,4.16667,0,0)">
            <path d="M494.041,267.302C493.883,266.769 493.57,266.335 493.103,266.001C492.637,265.667 492.096,265.5 491.478,265.5C490.81,265.5 490.223,265.688 489.719,266.063C489.401,266.297 489.107,266.71 488.838,267.302L494.041,267.302ZM496.44,269.192L488.732,269.192C488.844,269.871 489.141,270.412 489.625,270.813C490.107,271.215 490.725,271.415 491.475,271.415C492.371,271.415 493.142,271.102 493.786,270.475L495.808,271.424C495.304,272.139 494.7,272.668 493.997,273.01C493.294,273.353 492.459,273.525 491.492,273.525C489.992,273.525 488.77,273.052 487.827,272.105C486.884,271.159 486.412,269.974 486.412,268.55C486.412,267.091 486.883,265.88 487.822,264.916C488.764,263.952 489.942,263.47 491.36,263.47C492.866,263.47 494.091,263.952 495.034,264.916C495.978,265.88 496.449,267.153 496.449,268.735L496.44,269.192Z" style="fill:white;fill-rule:nonzero;"/>
        </g>
        <g transform="matrix(4.16667,0,0,4.16667,0,0)">
            <path d="M498.592,260.192L500.991,260.192L500.991,263.716L502.415,263.716L502.415,265.782L500.991,265.782L500.991,273.279L498.592,273.279L498.592,265.782L497.362,265.782L497.362,263.716L498.592,263.716L498.592,260.192Z" style="fill:white;fill-rule:nonzero;"/>
        </g>
        <g transform="matrix(4.16667,0,0,4.16667,0,0)">
            <path d="M504.528,260.192L506.927,260.192L506.927,263.716L508.351,263.716L508.351,265.782L506.927,265.782L506.927,273.279L504.528,273.279L504.528,265.782L503.298,265.782L503.298,263.716L504.528,263.716L504.528,260.192Z" style="fill:white;fill-rule:nonzero;"/>
        </g>
        <g transform="matrix(4.16667,0,0,4.16667,0,0)">
            <path d="M516.828,267.302C516.67,266.769 516.357,266.335 515.89,266.001C515.424,265.667 514.883,265.5 514.265,265.5C513.597,265.5 513.01,265.688 512.506,266.063C512.188,266.297 511.894,266.71 511.625,267.302L516.828,267.302ZM519.227,269.192L511.519,269.192C511.631,269.871 511.928,270.412 512.412,270.813C512.894,271.215 513.512,271.415 514.262,271.415C515.158,271.415 515.929,271.102 516.573,270.475L518.595,271.424C518.091,272.139 517.487,272.668 516.784,273.01C516.081,273.353 515.246,273.525 514.279,273.525C512.779,273.525 511.557,273.052 510.614,272.105C509.671,271.159 509.199,269.974 509.199,268.55C509.199,267.091 509.67,265.88 510.609,264.916C511.551,263.952 512.729,263.47 514.147,263.47C515.653,263.47 516.878,263.952 517.821,264.916C518.765,265.88 519.236,267.153 519.236,268.735L519.227,269.192Z" style="fill:white;fill-rule:nonzero;"/>
        </g>
        <g transform="matrix(4.16667,0,0,4.16667,0,0)">
            <path d="M520.876,263.716L522.933,263.716L522.933,264.92C523.155,264.445 523.451,264.085 523.82,263.839C524.189,263.593 524.594,263.47 525.033,263.47C525.344,263.47 525.669,263.552 526.009,263.716L525.262,265.781C524.98,265.641 524.749,265.57 524.567,265.57C524.198,265.57 523.887,265.799 523.631,266.256C523.377,266.713 523.249,267.61 523.249,268.945L523.258,269.411L523.258,273.279L520.876,273.279L520.876,263.716Z" style="fill:white;fill-rule:nonzero;"/>
        </g>
        <g transform="matrix(4.16667,0,0,4.16667,0,0)">
            <path d="M544.06,262.538L544.06,258.96L552.919,266.247L552.919,269.434L544.06,276.737L544.06,273.147L550.383,267.843L544.06,262.538Z" style="fill:white;fill-rule:nonzero;"/>
        </g>
        <g transform="matrix(4.16667,0,0,4.16667,0,0)">
            <path d="M293.7,246.739L289.048,249.159L304.147,277.93C305.702,277.129 307.257,276.327 308.811,275.526L293.7,246.739Z" style="fill:white;fill-rule:nonzero;"/>
        </g>
        <g transform="matrix(4.16667,0,0,4.16667,0,0)">
            <path d="M310.459,282.863C310.111,283.043 309.763,283.222 309.415,283.401L310.718,284.647L310.688,284.594L310.721,284.65L310.459,282.863Z" style="fill:white;fill-rule:nonzero;"/>
        </g>
        <g transform="matrix(4.16667,0,0,4.16667,0,0)">
            <path d="M309.448,276.756C307.948,277.529 306.447,278.303 304.946,279.076L308.463,282.332C308.993,282.059 309.522,281.786 310.052,281.513L309.448,276.756Z" style="fill:white;fill-rule:nonzero;"/>
        </g>
    </g>
</svg>
