<?xml version="1.0" encoding="utf-8"?>
<!-- Generator: Adobe Illustrator 16.0.0, SVG Export Plug-In . SVG Version: 6.00 Build 0)  -->
<!DOCTYPE svg PUBLIC "-//W3C//DTD SVG 1.1//EN" "http://www.w3.org/Graphics/SVG/1.1/DTD/svg11.dtd">
<svg version="1.1" id="Layer_1" xmlns="http://www.w3.org/2000/svg" xmlns:xlink="http://www.w3.org/1999/xlink" x="0px" y="0px"
	 width="841.9px" height="120.9px" viewBox="0 237.2 841.9 120.9" enable-background="new 0 237.2 841.9 120.9"
	 xml:space="preserve">
<g transform="matrix(1,0,0,1,-1204.37,-1028.08)">
	<g transform="matrix(4.16667,0,0,4.16667,0,0)">
		<path fill="#FFFFFF" d="M329.9,313.4V325c0,1.1-0.2,2.9,0.2,3.7c0.5,0.8,1.9,0.8,2.4,0.1c0.5-0.6,0.2-2.7,0.2-3.7v-11.8H330
			C329.9,313.2,329.9,313.3,329.9,313.4 M311.3,306.7v16.7c0,1.3-0.3,4.6,0.2,5.4c0.5,0.7,2.4,0.5,3.7,0.5h12.9
			c-0.2-0.6-0.3-1.1-0.3-1.6c-0.3-6.8,0.2-14.2,0.1-21c-5.4-0.1-11,0-16.5-0.1C311.3,306.6,311.3,306.6,311.3,306.7 M309.6,304.8
			h19.9v6.6c1.5,0.1,3.3,0,5,0.1v13.1c0,1.4,0.2,3.2-0.1,4.2c-0.8,2.5-3.6,2.2-7,2.2h-10.7c-1.7,0-4,0.2-5.1-0.2
			c-0.8-0.3-1.5-1.1-1.8-2c-0.4-1.4-0.1-4-0.1-5.9V305C309.6,304.9,309.6,304.8,309.6,304.8"/>
	</g>
	<g transform="matrix(4.16667,0,0,4.16667,0,0)">
		<path fill="#FFFFFF" d="M313.4,308.3c1.8,0,3.8-0.1,5.5,0.1v7.5h-5.7v-7.4C313.2,308.4,313.3,308.3,313.4,308.3"/>
	</g>
	<g transform="matrix(4.16667,0,0,4.16667,0,0)">
		<path fill="#FFFFFF" d="M325.7,310.6v1h-5.5c0-0.3-0.1-0.8,0.1-1H325.7z"/>
	</g>
	<g transform="matrix(4.16667,0,0,4.16667,0,0)">
		<path fill="#FFFFFF" d="M325.7,312.8v1h-5.5c0-0.3-0.1-0.8,0.1-1H325.7z"/>
	</g>
	<g transform="matrix(4.16667,0,0,4.16667,0,0)">
		<path fill="#FFFFFF" d="M325.7,315v1h-5.5c0-0.3-0.1-0.8,0.1-1H325.7z"/>
	</g>
	<g transform="matrix(4.16667,0,0,4.16667,0,0)">
		<path fill="#FFFFFF" d="M313.4,317.2h12.4v1h-12.4C313.3,317.9,313.2,317.4,313.4,317.2"/>
	</g>
	<g transform="matrix(4.16667,0,0,4.16667,0,0)">
		<path fill="#FFFFFF" d="M313.4,319.4h12.4v1h-12.4C313.3,320.1,313.2,319.6,313.4,319.4"/>
	</g>
	<g transform="matrix(4.16667,0,0,4.16667,0,0)">
		<path fill="#FFFFFF" d="M313.4,321.6h12.4v1.1h-12.4C313.3,322.3,313.2,321.8,313.4,321.6"/>
	</g>
	<g transform="matrix(4.16667,0,0,4.16667,0,0)">
		<path fill="#FFFFFF" d="M313.4,323.8h12.4v1h-12.4C313.3,324.5,313.2,324,313.4,323.8"/>
	</g>
	<g transform="matrix(4.16667,0,0,4.16667,0,0)">
		<path fill="#FFFFFF" d="M313.4,326h12.4v1.1h-12.4C313.3,326.7,313.2,326.2,313.4,326"/>
	</g>
	<g transform="matrix(4.16667,0,0,4.16667,0,0)">
		<path fill="#FFFFFF" d="M484.2,315.8V313l6.8,5.6v2.4l-6.8,5.6v-2.7l4.8-4.1L484.2,315.8z"/>
	</g>
	<g transform="matrix(4.16667,0,0,4.16667,0,0)">
		<path fill="#FFFFFF" d="M292.6,303.7l-3.6,1.9l11.6,22c1.2-0.6,2.4-1.2,3.6-1.8L292.6,303.7z"/>
	</g>
	<g transform="matrix(4.16667,0,0,4.16667,0,0)">
		<path fill="#FFFFFF" d="M305.4,331.3c-0.3,0.1-0.5,0.3-0.8,0.4l1,1l0,0l0,0L305.4,331.3z"/>
	</g>
	<g transform="matrix(4.16667,0,0,4.16667,0,0)">
		<path fill="#FFFFFF" d="M304.7,326.6c-1.1,0.6-2.3,1.2-3.4,1.8l2.7,2.5c0.4-0.2,0.8-0.4,1.2-0.6L304.7,326.6z"/>
	</g>
</g>
<g>
	<path fill="#FFFFFF" d="M247.5,294.2h-7.8c0.2-4.5,1.6-8,4.2-10.6c2.6-2.6,6-3.9,10.1-3.9c2.5,0,4.8,0.5,6.7,1.6
		c1.9,1.1,3.5,2.6,4.7,4.6c1.2,2,1.7,4.1,1.7,6.1c0,2.5-0.7,5.1-2.1,8c-1.4,2.9-4,6.2-7.7,10.1l-4.7,4.9h14.9v7.4h-28.9v-3.8
		l12.9-13.2c3.1-3.2,5.2-5.7,6.2-7.6c1-1.9,1.5-3.7,1.5-5.2c0-1.6-0.5-2.9-1.6-4c-1.1-1-2.4-1.6-4.1-1.6c-1.7,0-3.1,0.6-4.3,1.9
		C248.2,290.3,247.6,292,247.5,294.2z"/>
	<path fill="#FFFFFF" d="M287.4,279.6c3,0,5.7,0.7,7.9,2.2c2.2,1.5,3.9,3.8,5.1,6.9c1.2,3.1,1.8,7.4,1.8,12.8
		c0,5.5-0.6,9.9-1.8,12.9c-1.2,3.1-2.9,5.4-4.9,6.8c-2.1,1.5-4.7,2.2-7.8,2.2s-5.8-0.7-7.9-2.2c-2.1-1.5-3.8-3.7-5-6.6
		c-1.2-3-1.8-7.2-1.8-12.7c0-7.7,1.2-13.2,3.5-16.7C279,281.5,282.7,279.6,287.4,279.6z M287.6,287.2c-1.3,0-2.5,0.4-3.6,1.3
		c-1,0.9-1.8,2.3-2.4,4.4c-0.5,2.1-0.8,5.2-0.8,9.2c0,5.3,0.6,8.9,1.9,10.9c1.3,2,2.9,3,4.9,3c1.9,0,3.5-1,4.6-2.9
		c1.4-2.3,2.1-6.2,2.1-11.6c0-5.5-0.6-9.3-1.9-11.4C291.1,288.2,289.5,287.2,287.6,287.2z"/>
	<path fill="#FFFFFF" d="M311.9,280.7h11.9v41.8h-7.9v-34.3h-8.6L311.9,280.7z"/>
	<path fill="#FFFFFF" d="M348.1,279.6l6.8,3.4l-7.3,14.2c3.5,0,6.5,1.3,9,3.8c2.5,2.5,3.7,5.7,3.7,9.5c0,3.6-1.3,6.7-3.8,9.2
		c-2.5,2.5-5.6,3.8-9.2,3.8c-3.8,0-6.9-1.3-9.4-3.9c-2.5-2.6-3.8-5.6-3.8-9c0-1.3,0.2-2.6,0.6-3.9c0.4-1.3,1.3-3.3,2.7-6
		L348.1,279.6z M347.1,304.7c-1.5,0-2.7,0.5-3.7,1.6c-1,1.1-1.5,2.4-1.5,4c0,1.6,0.5,3,1.6,4.1c1.1,1.1,2.3,1.6,3.7,1.6
		c1.5,0,2.7-0.5,3.8-1.6c1.1-1.1,1.6-2.4,1.6-4.1c0-1.6-0.5-2.9-1.5-4C349.9,305.3,348.6,304.7,347.1,304.7z"/>
	<path fill="#FFFFFF" d="M362.3,329.9l18.7-50.4h5.5l-18.8,50.4H362.3z"/>
	<path fill="#FFFFFF" d="M395.5,280.7h11.9v41.8h-7.9v-34.3h-8.6L395.5,280.7z"/>
	<path fill="#FFFFFF" d="M417.9,280.7h27.4v4.2l-18.9,38.6l-6.7-3.3l15.7-32.1h-17.5V280.7z"/>
	<path fill="#FFFFFF" d="M468,280.7h7.6l17.9,27.5v-27.5h8v41.8h-7.6L476,295.1v27.4h-8V280.7z"/>
	<path fill="#FFFFFF" d="M541.2,309.3h-24.9c0.4,2.2,1.3,3.9,2.9,5.2c1.6,1.3,3.6,1.9,6,1.9c2.9,0,5.4-1,7.5-3l6.5,3.1
		c-1.6,2.3-3.6,4-5.8,5.1c-2.3,1.1-5,1.7-8.1,1.7c-4.8,0-8.8-1.5-11.8-4.6c-3-3.1-4.6-6.9-4.6-11.5c0-4.7,1.5-8.6,4.6-11.7
		c3-3.1,6.8-4.7,11.4-4.7c4.9,0,8.8,1.6,11.9,4.7c3,3.1,4.6,7.2,4.6,12.3L541.2,309.3z M533.5,303.2c-0.5-1.7-1.5-3.1-3-4.2
		c-1.5-1.1-3.3-1.6-5.2-1.6c-2.2,0-4.1,0.6-5.7,1.8c-1,0.8-2,2.1-2.8,4H533.5z"/>
	<path fill="#FFFFFF" d="M543,291.6h7.6l6.2,17.6l6.7-17.6h4.6l6.6,17.4l6.2-17.4h7.6l-11.3,30.9h-4.9l-6.6-17.6l-6.8,17.6h-4.9
		L543,291.6z"/>
	<path fill="#FFFFFF" d="M611.6,295.9l-4.8,4.8c-2-1.9-3.7-2.9-5.3-2.9c-0.9,0-1.6,0.2-2,0.6c-0.5,0.4-0.7,0.8-0.7,1.4
		c0,0.4,0.2,0.8,0.5,1.2c0.3,0.4,1.1,0.8,2.3,1.4l2.8,1.4c3,1.5,5,3,6.2,4.5c1.1,1.5,1.7,3.3,1.7,5.4c0,2.7-1,5-3,6.9
		c-2,1.8-4.7,2.8-8.1,2.8c-4.5,0-8.1-1.8-10.8-5.3l4.8-5.2c0.9,1.1,2,1.9,3.2,2.6c1.2,0.6,2.3,1,3.3,1c1,0,1.8-0.2,2.5-0.7
		c0.6-0.5,0.9-1.1,0.9-1.7c0-1.2-1.1-2.4-3.4-3.5l-2.6-1.3c-5-2.5-7.5-5.7-7.5-9.5c0-2.4,0.9-4.5,2.8-6.3c1.9-1.7,4.3-2.6,7.2-2.6
		c2,0,3.9,0.4,5.7,1.3C608.9,293,610.4,294.2,611.6,295.9z"/>
	<path fill="#FFFFFF" d="M618.2,279.6h7.8v42.8h-7.8V279.6z"/>
	<path fill="#FFFFFF" d="M664.5,309.3h-24.9c0.4,2.2,1.3,3.9,2.9,5.2c1.6,1.3,3.6,1.9,6,1.9c2.9,0,5.4-1,7.5-3l6.5,3.1
		c-1.6,2.3-3.6,4-5.8,5.1c-2.3,1.1-5,1.7-8.1,1.7c-4.8,0-8.8-1.5-11.8-4.6c-3-3.1-4.6-6.9-4.6-11.5c0-4.7,1.5-8.6,4.6-11.7
		c3-3.1,6.8-4.7,11.4-4.7c4.9,0,8.8,1.6,11.9,4.7c3,3.1,4.6,7.2,4.6,12.3L664.5,309.3z M656.8,303.2c-0.5-1.7-1.5-3.1-3-4.2
		c-1.5-1.1-3.3-1.6-5.2-1.6c-2.2,0-4.1,0.6-5.7,1.8c-1,0.8-2,2.1-2.8,4H656.8z"/>
	<path fill="#FFFFFF" d="M671.5,280.2h7.8v11.4h4.6v6.7h-4.6v24.2h-7.8v-24.2h-4v-6.7h4V280.2z"/>
	<path fill="#FFFFFF" d="M690.6,280.2h7.8v11.4h4.6v6.7h-4.6v24.2h-7.8v-24.2h-4v-6.7h4V280.2z"/>
	<path fill="#FFFFFF" d="M738.1,309.3h-24.9c0.4,2.2,1.3,3.9,2.9,5.2c1.6,1.3,3.6,1.9,6,1.9c2.9,0,5.4-1,7.5-3l6.5,3.1
		c-1.6,2.3-3.6,4-5.8,5.1c-2.3,1.1-5,1.7-8.1,1.7c-4.8,0-8.8-1.5-11.8-4.6c-3-3.1-4.6-6.9-4.6-11.5c0-4.7,1.5-8.6,4.6-11.7
		c3-3.1,6.8-4.7,11.4-4.7c4.9,0,8.8,1.6,11.9,4.7c3,3.1,4.6,7.2,4.6,12.3L738.1,309.3z M730.4,303.2c-0.5-1.7-1.5-3.1-3-4.2
		c-1.5-1.1-3.3-1.6-5.2-1.6c-2.2,0-4.1,0.6-5.7,1.8c-1,0.8-2,2.1-2.8,4H730.4z"/>
	<path fill="#FFFFFF" d="M743.4,291.6h6.6v3.9c0.7-1.5,1.7-2.7,2.9-3.5s2.5-1.2,3.9-1.2c1,0,2.1,0.3,3.2,0.8l-2.4,6.7
		c-0.9-0.5-1.7-0.7-2.2-0.7c-1.2,0-2.2,0.7-3,2.2c-0.8,1.5-1.2,4.4-1.2,8.7l0,1.5v12.5h-7.7V291.6z"/>
</g>
</svg>
